<?xml version="1.0" encoding="UTF-8"?>
<!DOCTYPE svg PUBLIC "-//W3C//DTD SVG 1.1//EN" "http://www.w3.org/Graphics/SVG/1.1/DTD/svg11.dtd">
<svg xmlns="http://www.w3.org/2000/svg" version="1.1" width="447px" height="365px" style="shape-rendering:geometricPrecision; text-rendering:geometricPrecision; image-rendering:optimizeQuality; fill-rule:evenodd; clip-rule:evenodd" xmlns:xlink="http://www.w3.org/1999/xlink">
<g><path style="opacity:0.788" fill="#fdfcfd" d="M 129.5,308.5 C 127.089,307.483 125.422,305.816 124.5,303.5C 124.047,302.542 123.381,301.708 122.5,301C 157.53,293.467 182.196,273.3 196.5,240.5C 196.167,242.5 195.833,244.5 195.5,246.5C 193.896,247.287 193.229,248.62 193.5,250.5C 240.106,238.063 270.606,208.73 285,162.5C 296.729,113.604 284.563,71.4378 248.5,36C 206.385,1.60697 160.052,-5.0597 109.5,16C 68.5797,37.8146 45.2464,71.8146 39.5,118C 39.8333,120.167 40.1667,122.333 40.5,124.5C 42.261,123.965 43.5943,122.965 44.5,121.5C 45.1667,121.5 45.5,121.167 45.5,120.5C 46.8333,119.833 48.1667,119.167 49.5,118.5C 49.4894,120.017 48.8228,121.184 47.5,122C 21.8297,139.99 7.163,164.657 3.5,196C 2.52919,242.434 23.1959,275.768 65.5,296C 70.7127,298.017 76.046,299.517 81.5,300.5C 79.5,303.167 77.1667,305.5 74.5,307.5C 75.0476,305.606 76.0476,303.94 77.5,302.5C 29.9426,286.912 4.60922,254.079 1.5,204C 2.86997,173.342 14.5366,147.509 36.5,126.5C 40.1846,73.3534 65.8512,35.1868 113.5,12C 168.207,-8.11039 216.373,2.05628 258,42.5C 293.247,84.6529 300.58,131.32 280,182.5C 261.558,219.935 232.058,243.768 191.5,254C 176.146,278.689 154.479,295.189 126.5,303.5C 127.952,304.94 128.952,306.606 129.5,308.5 Z M 204.5,209.5 C 204.752,164.147 184.752,131.313 144.5,111C 122.422,101.96 99.7558,100.127 76.5,105.5C 90.4109,63.6979 119.411,41.3646 163.5,38.5C 203.034,40.2294 231.201,58.896 248,94.5C 262.959,138.858 252.126,175.358 215.5,204C 212.09,206.372 208.423,208.205 204.5,209.5 Z M 42.5,166.5 C 46.9948,181.831 54.3281,195.498 64.5,207.5C 67.2049,225.445 77.2049,236.945 94.5,242C 98.4862,242.499 102.486,242.666 106.5,242.5C 120.765,250.236 136.098,254.569 152.5,255.5C 135.825,271.668 115.825,278.168 92.5,275C 58.5445,268.045 38.3778,247.545 32,213.5C 30.4058,200.4 32.0724,187.733 37,175.5C 38.3571,172.102 40.1904,169.102 42.5,166.5 Z M 173.5,219.5 C 162.326,220.059 151.326,219.059 140.5,216.5C 145.98,194.417 138.647,178.25 118.5,168C 106.635,163.42 94.9688,163.92 83.5,169.5C 78.1912,159.948 75.1912,149.614 74.5,138.5C 110.02,125.091 139.52,133.424 163,163.5C 174.146,180.749 177.646,199.416 173.5,219.5 Z"/></g>
<g><path style="opacity:1" fill="#f7dfe9" d="M 197.5,240.5 C 197.328,239.508 197.662,238.842 198.5,238.5C 230.103,228.236 253.436,208.236 268.5,178.5C 287.053,134.93 281.719,93.5964 252.5,54.5C 214.47,14.9114 169.47,4.41145 117.5,23C 78.9615,42.0552 56.2949,72.8885 49.5,115.5C 49.5427,116.416 49.8761,117.083 50.5,117.5C 50.5,118.167 50.1667,118.5 49.5,118.5C 48.1667,119.167 46.8333,119.833 45.5,120.5C 49.9786,75.5883 71.9786,42.755 111.5,22C 155.556,2.2505 197.223,6.2505 236.5,34C 280.71,71.6812 293.543,118.181 275,173.5C 260.192,207.644 235.192,230.644 200,242.5C 198.624,242.316 197.791,241.649 197.5,240.5 Z"/></g>
<g><path style="opacity:1" fill="#f0c0d3" d="M 201.5,228.5 C 201.808,224.64 202.475,220.974 203.5,217.5C 203.5,218.833 203.5,220.167 203.5,221.5C 204.263,222.268 205.263,222.768 206.5,223C 204.729,223.535 204.396,224.369 205.5,225.5C 242.874,207.29 264.207,177.457 269.5,136C 269.791,87.8934 248.124,53.2267 204.5,32C 154.547,14.7823 112.714,26.6156 79,67.5C 69.4068,80.9682 63.5735,95.6348 61.5,111.5C 60.0697,112.537 58.403,113.204 56.5,113.5C 62.9631,75.0561 83.6297,47.2227 118.5,30C 161.683,12.5977 201.35,18.5977 237.5,48C 271.765,83.4946 281.265,123.661 266,168.5C 253.579,198.588 232.246,219.588 202,231.5C 201.517,230.552 201.351,229.552 201.5,228.5 Z"/></g>
<g><path style="opacity:0.893" fill="#e592b2" d="M 204.5,212.5 C 204.5,211.833 204.5,211.167 204.5,210.5C 204.5,210.167 204.5,209.833 204.5,209.5C 208.423,208.205 212.09,206.372 215.5,204C 252.126,175.358 262.959,138.858 248,94.5C 231.201,58.896 203.034,40.2294 163.5,38.5C 119.411,41.3646 90.4109,63.6979 76.5,105.5C 76.5,106.167 76.1667,106.5 75.5,106.5C 75.1667,106.5 74.8333,106.5 74.5,106.5C 86.5487,65.954 113.549,42.7873 155.5,37C 198.405,35.1976 229.572,53.3643 249,91.5C 264.813,134.698 255.647,171.532 221.5,202C 215.928,205.756 210.261,209.256 204.5,212.5 Z"/></g>
<g><path style="opacity:1" fill="#e79bb9" d="M 204.5,212.5 C 210.261,209.256 215.928,205.756 221.5,202C 255.647,171.532 264.813,134.698 249,91.5C 229.572,53.3643 198.405,35.1976 155.5,37C 113.549,42.7873 86.5487,65.954 74.5,106.5C 72.5953,105.536 71.5953,103.869 71.5,101.5C 84.4858,62.6803 111.152,39.847 151.5,33C 201.731,29.9522 236.564,51.4522 256,97.5C 263.807,121.933 262.474,146.267 252,170.5C 241.972,191.362 226.472,206.695 205.5,216.5C 204.571,215.311 204.238,213.978 204.5,212.5 Z"/></g>
<g><path style="opacity:1" fill="#faeaf0" d="M 195.5,246.5 C 195.833,244.5 196.167,242.5 196.5,240.5C 196.833,240.5 197.167,240.5 197.5,240.5C 197.791,241.649 198.624,242.316 200,242.5C 235.192,230.644 260.192,207.644 275,173.5C 293.543,118.181 280.71,71.6812 236.5,34C 197.223,6.2505 155.556,2.2505 111.5,22C 71.9786,42.755 49.9786,75.5883 45.5,120.5C 45.5,121.167 45.1667,121.5 44.5,121.5C 48.13,71.4886 73.13,36.3219 119.5,16C 172.228,-1.60919 217.728,9.55748 256,49.5C 286.823,88.5172 293.489,130.85 276,176.5C 259.805,212.202 232.972,235.536 195.5,246.5 Z"/></g>
<g><path style="opacity:1" fill="#eaa7c1" d="M 203.5,221.5 C 203.5,220.167 203.5,218.833 203.5,217.5C 203.198,214.941 203.532,212.607 204.5,210.5C 204.5,211.167 204.5,211.833 204.5,212.5C 204.238,213.978 204.571,215.311 205.5,216.5C 226.472,206.695 241.972,191.362 252,170.5C 262.474,146.267 263.807,121.933 256,97.5C 236.564,51.4522 201.731,29.9522 151.5,33C 111.152,39.847 84.4858,62.6803 71.5,101.5C 71.5953,103.869 72.5953,105.536 74.5,106.5C 74.8333,106.5 75.1667,106.5 75.5,106.5C 72.2081,107.496 68.8747,108.496 65.5,109.5C 76.831,63.0028 106.164,36.1695 153.5,29C 202.33,26.6571 237.164,47.4904 258,91.5C 271.194,128.948 265.527,163.281 241,194.5C 230.647,206.583 218.147,215.583 203.5,221.5 Z"/></g>
<g><path style="opacity:1" fill="#f2cbda" d="M 200.5,233.5 C 200.216,231.585 200.549,229.919 201.5,228.5C 201.351,229.552 201.517,230.552 202,231.5C 232.246,219.588 253.579,198.588 266,168.5C 281.265,123.661 271.765,83.4946 237.5,48C 201.35,18.5977 161.683,12.5977 118.5,30C 83.6297,47.2227 62.9631,75.0561 56.5,113.5C 55.7095,114.401 54.7095,115.068 53.5,115.5C 59.6067,75.2226 80.94,46.0559 117.5,28C 157.947,11.104 196.281,15.4373 232.5,41C 269.431,72.8374 282.264,112.671 271,160.5C 259.229,196.762 235.729,221.095 200.5,233.5 Z"/></g>
<g><path style="opacity:1" fill="#f4d3e0" d="M 198.5,238.5 C 198.796,236.597 199.463,234.93 200.5,233.5C 235.729,221.095 259.229,196.762 271,160.5C 282.264,112.671 269.431,72.8374 232.5,41C 196.281,15.4373 157.947,11.104 117.5,28C 80.94,46.0559 59.6067,75.2226 53.5,115.5C 53.0269,116.906 52.0269,117.573 50.5,117.5C 49.8761,117.083 49.5427,116.416 49.5,115.5C 56.2949,72.8885 78.9615,42.0552 117.5,23C 169.47,4.41145 214.47,14.9114 252.5,54.5C 281.719,93.5964 287.053,134.93 268.5,178.5C 253.436,208.236 230.103,228.236 198.5,238.5 Z"/></g>
<g><path style="opacity:1" fill="#fcf4f7" d="M 195.5,246.5 C 232.972,235.536 259.805,212.202 276,176.5C 293.489,130.85 286.823,88.5172 256,49.5C 217.728,9.55748 172.228,-1.60919 119.5,16C 73.13,36.3219 48.13,71.4886 44.5,121.5C 43.5943,122.965 42.261,123.965 40.5,124.5C 40.1667,122.333 39.8333,120.167 39.5,118C 45.2464,71.8146 68.5797,37.8146 109.5,16C 160.052,-5.0597 206.385,1.60697 248.5,36C 284.563,71.4378 296.729,113.604 285,162.5C 270.606,208.73 240.106,238.063 193.5,250.5C 193.229,248.62 193.896,247.287 195.5,246.5 Z"/></g>
<g><path style="opacity:1" fill="#edb3ca" d="M 203.5,221.5 C 218.147,215.583 230.647,206.583 241,194.5C 265.527,163.281 271.194,128.948 258,91.5C 237.164,47.4904 202.33,26.6571 153.5,29C 106.164,36.1695 76.831,63.0028 65.5,109.5C 64.4863,110.674 63.153,111.34 61.5,111.5C 63.5735,95.6348 69.4068,80.9682 79,67.5C 112.714,26.6156 154.547,14.7823 204.5,32C 248.124,53.2267 269.791,87.8934 269.5,136C 264.207,177.457 242.874,207.29 205.5,225.5C 204.396,224.369 204.729,223.535 206.5,223C 205.263,222.768 204.263,222.268 203.5,221.5 Z"/></g>
<g><path style="opacity:1" fill="#f5f8fb" d="M 204.5,209.5 C 204.5,209.833 204.5,210.167 204.5,210.5C 203.532,212.607 203.198,214.941 203.5,217.5C 202.475,220.974 201.808,224.64 201.5,228.5C 200.549,229.919 200.216,231.585 200.5,233.5C 199.463,234.93 198.796,236.597 198.5,238.5C 197.662,238.842 197.328,239.508 197.5,240.5C 197.167,240.5 196.833,240.5 196.5,240.5C 182.196,273.3 157.53,293.467 122.5,301C 123.381,301.708 124.047,302.542 124.5,303.5C 110.862,292.788 96.5286,291.788 81.5,300.5C 76.046,299.517 70.7127,298.017 65.5,296C 23.1959,275.768 2.52919,242.434 3.5,196C 7.163,164.657 21.8297,139.99 47.5,122C 48.8228,121.184 49.4894,120.017 49.5,118.5C 50.1667,118.5 50.5,118.167 50.5,117.5C 52.0269,117.573 53.0269,116.906 53.5,115.5C 54.7095,115.068 55.7095,114.401 56.5,113.5C 58.403,113.204 60.0697,112.537 61.5,111.5C 63.153,111.34 64.4863,110.674 65.5,109.5C 68.8747,108.496 72.2081,107.496 75.5,106.5C 76.1667,106.5 76.5,106.167 76.5,105.5C 99.7558,100.127 122.422,101.96 144.5,111C 184.752,131.313 204.752,164.147 204.5,209.5 Z M 42.5,166.5 C 46.9948,181.831 54.3281,195.498 64.5,207.5C 67.2049,225.445 77.2049,236.945 94.5,242C 98.4862,242.499 102.486,242.666 106.5,242.5C 120.765,250.236 136.098,254.569 152.5,255.5C 135.825,271.668 115.825,278.168 92.5,275C 58.5445,268.045 38.3778,247.545 32,213.5C 30.4058,200.4 32.0724,187.733 37,175.5C 38.3571,172.102 40.1904,169.102 42.5,166.5 Z M 173.5,219.5 C 162.326,220.059 151.326,219.059 140.5,216.5C 145.98,194.417 138.647,178.25 118.5,168C 106.635,163.42 94.9688,163.92 83.5,169.5C 78.1912,159.948 75.1912,149.614 74.5,138.5C 110.02,125.091 139.52,133.424 163,163.5C 174.146,180.749 177.646,199.416 173.5,219.5 Z"/></g>
<g><path style="opacity:1" fill="#ebf1f7" d="M 117.5,296.5 C 156.07,289.77 181.57,267.77 194,230.5C 203.965,187.659 191.799,152.826 157.5,126C 124.266,105.656 90.2659,104.322 55.5,122C 15.5741,148.76 1.40741,185.593 13,232.5C 25.4268,267.091 49.5935,288.425 85.5,296.5C 84.5514,297.152 83.3847,297.486 82,297.5C 58.9666,292.315 40.2999,280.315 26,261.5C 19.5379,251.574 13.8713,241.24 9,230.5C 6.08297,214.234 5.74964,197.9 8,181.5C 11.9972,174.675 14.4972,167.342 15.5,159.5C 16.675,159.719 17.675,159.386 18.5,158.5C 30.2013,133.98 49.2013,117.814 75.5,110C 97.1656,104.568 118.499,105.568 139.5,113C 148.472,118.156 157.138,123.822 165.5,130C 179.382,142.966 189.882,158.132 197,175.5C 204.499,206.967 198.832,235.967 180,262.5C 164.723,281.261 145.223,293.261 121.5,298.5C 119.829,298.332 118.496,297.665 117.5,296.5 Z M 42.5,166.5 C 46.9948,181.831 54.3281,195.498 64.5,207.5C 67.2049,225.445 77.2049,236.945 94.5,242C 98.4862,242.499 102.486,242.666 106.5,242.5C 120.765,250.236 136.098,254.569 152.5,255.5C 135.825,271.668 115.825,278.168 92.5,275C 58.5445,268.045 38.3778,247.545 32,213.5C 30.4058,200.4 32.0724,187.733 37,175.5C 38.3571,172.102 40.1904,169.102 42.5,166.5 Z M 173.5,219.5 C 162.326,220.059 151.326,219.059 140.5,216.5C 145.98,194.417 138.647,178.25 118.5,168C 106.635,163.42 94.9688,163.92 83.5,169.5C 78.1912,159.948 75.1912,149.614 74.5,138.5C 110.02,125.091 139.52,133.424 163,163.5C 174.146,180.749 177.646,199.416 173.5,219.5 Z"/></g>
<g><path style="opacity:0.891" fill="#246fb0" d="M 234.5,250.5 C 243.559,250.154 252.559,250.654 261.5,252C 271.058,257.053 274.225,264.887 271,275.5C 269.066,281.767 264.9,285.601 258.5,287C 249.449,287.818 242.449,287.651 237.5,286.5C 237.5,275.167 237.5,263.833 237.5,252.5C 235.821,252.715 234.821,252.048 234.5,250.5 Z M 249.5,252.5 C 254.929,252.426 258.096,255.093 259,260.5C 260.126,268.045 259.46,275.379 257,282.5C 255.355,284.662 253.188,285.995 250.5,286.5C 249.501,275.186 249.168,263.853 249.5,252.5 Z"/></g>
<g><path style="opacity:0.891" fill="#256eb0" d="M 297.5,288.5 C 296.167,288.5 294.833,288.5 293.5,288.5C 280.747,288.914 274.414,282.747 274.5,270C 274.153,257.517 280.153,251.017 292.5,250.5C 302.46,249.388 308.293,253.721 310,263.5C 312.068,272.29 309.901,279.79 303.5,286C 301.389,286.845 299.389,287.678 297.5,288.5 Z M 289.5,252.5 C 295.167,251.331 298,253.664 298,259.5C 298.822,267.555 298.488,275.555 297,283.5C 291.569,288.129 288.236,286.796 287,279.5C 286.333,272.5 286.333,265.5 287,258.5C 287.573,256.359 288.406,254.359 289.5,252.5 Z"/></g>
<g><path style="opacity:0.869" fill="#246fb0" d="M 311.5,250.5 C 322.5,250.5 333.5,250.5 344.5,250.5C 344.827,255.214 344.493,259.88 343.5,264.5C 341.21,261.506 339.376,258.173 338,254.5C 336.915,253.707 335.748,253.04 334.5,252.5C 333.501,263.814 333.168,275.147 333.5,286.5C 329.833,287.833 326.167,287.833 322.5,286.5C 322.832,275.147 322.499,263.814 321.5,252.5C 317.108,255.282 314.775,259.282 314.5,264.5C 313.5,264.5 312.5,264.5 311.5,264.5C 311.5,259.833 311.5,255.167 311.5,250.5 Z"/></g>
<g><path style="opacity:1" fill="#e1eaf3" d="M 117.5,296.5 C 115.847,296.34 114.514,295.674 113.5,294.5C 149.823,288.435 174.989,268.435 189,234.5C 200.748,196.496 192.248,163.496 163.5,135.5C 123.652,105.12 83.6523,104.953 43.5,135C 15.8241,161.008 6.65747,192.508 16,229.5C 25.2462,259.08 44.4128,279.247 73.5,290C 79.6629,292.133 85.9962,293.299 92.5,293.5C 90.351,294.736 88.0177,295.736 85.5,296.5C 49.5935,288.425 25.4268,267.091 13,232.5C 1.40741,185.593 15.5741,148.76 55.5,122C 90.2659,104.322 124.266,105.656 157.5,126C 191.799,152.826 203.965,187.659 194,230.5C 181.57,267.77 156.07,289.77 117.5,296.5 Z M 42.5,166.5 C 46.9948,181.831 54.3281,195.498 64.5,207.5C 67.2049,225.445 77.2049,236.945 94.5,242C 98.4862,242.499 102.486,242.666 106.5,242.5C 120.765,250.236 136.098,254.569 152.5,255.5C 135.825,271.668 115.825,278.168 92.5,275C 58.5445,268.045 38.3778,247.545 32,213.5C 30.4058,200.4 32.0724,187.733 37,175.5C 38.3571,172.102 40.1904,169.102 42.5,166.5 Z M 173.5,219.5 C 162.326,220.059 151.326,219.059 140.5,216.5C 145.98,194.417 138.647,178.25 118.5,168C 106.635,163.42 94.9688,163.92 83.5,169.5C 78.1912,159.948 75.1912,149.614 74.5,138.5C 110.02,125.091 139.52,133.424 163,163.5C 174.146,180.749 177.646,199.416 173.5,219.5 Z"/></g>
<g><path style="opacity:1" fill="#d3e0ee" d="M 113.5,294.5 C 106.543,293.614 99.5433,293.28 92.5,293.5C 85.9962,293.299 79.6629,292.133 73.5,290C 44.4128,279.247 25.2462,259.08 16,229.5C 6.65747,192.508 15.8241,161.008 43.5,135C 83.6523,104.953 123.652,105.12 163.5,135.5C 192.248,163.496 200.748,196.496 189,234.5C 174.989,268.435 149.823,288.435 113.5,294.5 Z M 42.5,166.5 C 46.9948,181.831 54.3281,195.498 64.5,207.5C 67.2049,225.445 77.2049,236.945 94.5,242C 98.4862,242.499 102.486,242.666 106.5,242.5C 120.765,250.236 136.098,254.569 152.5,255.5C 135.825,271.668 115.825,278.168 92.5,275C 58.5445,268.045 38.3778,247.545 32,213.5C 30.4058,200.4 32.0724,187.733 37,175.5C 38.3571,172.102 40.1904,169.102 42.5,166.5 Z M 173.5,219.5 C 162.326,220.059 151.326,219.059 140.5,216.5C 145.98,194.417 138.647,178.25 118.5,168C 106.635,163.42 94.9688,163.92 83.5,169.5C 78.1912,159.948 75.1912,149.614 74.5,138.5C 110.02,125.091 139.52,133.424 163,163.5C 174.146,180.749 177.646,199.416 173.5,219.5 Z"/></g>
<g><path style="opacity:1" fill="#bacee3" d="M 168.5,258.5 C 164.5,261.167 161.167,264.5 158.5,268.5C 124.263,293.104 89.2632,294.27 53.5,272C 25.7524,249.648 14.919,220.815 21,185.5C 26.5345,161.132 40.3678,142.799 62.5,130.5C 64.7308,127.374 67.7308,125.207 71.5,124C 103.361,114.594 132.361,119.927 158.5,140C 186.001,166.504 193.834,198.004 182,234.5C 178.236,243.04 173.736,251.04 168.5,258.5 Z M 42.5,166.5 C 46.9948,181.831 54.3281,195.498 64.5,207.5C 67.2049,225.445 77.2049,236.945 94.5,242C 98.4862,242.499 102.486,242.666 106.5,242.5C 120.765,250.236 136.098,254.569 152.5,255.5C 135.825,271.668 115.825,278.168 92.5,275C 58.5445,268.045 38.3778,247.545 32,213.5C 30.4058,200.4 32.0724,187.733 37,175.5C 38.3571,172.102 40.1904,169.102 42.5,166.5 Z M 173.5,219.5 C 162.326,220.059 151.326,219.059 140.5,216.5C 145.98,194.417 138.647,178.25 118.5,168C 106.635,163.42 94.9688,163.92 83.5,169.5C 78.1912,159.948 75.1912,149.614 74.5,138.5C 110.02,125.091 139.52,133.424 163,163.5C 174.146,180.749 177.646,199.416 173.5,219.5 Z"/></g>
<g><path style="opacity:1" fill="#afc7df" d="M 91.5,123.5 C 127.449,120.519 154.949,134.186 174,164.5C 175.136,171.106 177.136,177.439 180,183.5C 184.138,205.396 181.471,226.396 172,246.5C 148.208,280.086 116.375,291.252 76.5,280C 36.3839,262.613 18.8839,232.113 24,188.5C 33.063,152.745 55.563,131.078 91.5,123.5 Z M 42.5,166.5 C 46.9948,181.831 54.3281,195.498 64.5,207.5C 67.2049,225.445 77.2049,236.945 94.5,242C 98.4862,242.499 102.486,242.666 106.5,242.5C 120.765,250.236 136.098,254.569 152.5,255.5C 135.825,271.668 115.825,278.168 92.5,275C 58.5445,268.045 38.3778,247.545 32,213.5C 30.4058,200.4 32.0724,187.733 37,175.5C 38.3571,172.102 40.1904,169.102 42.5,166.5 Z M 173.5,219.5 C 162.326,220.059 151.326,219.059 140.5,216.5C 145.98,194.417 138.647,178.25 118.5,168C 106.635,163.42 94.9688,163.92 83.5,169.5C 78.1912,159.948 75.1912,149.614 74.5,138.5C 110.02,125.091 139.52,133.424 163,163.5C 174.146,180.749 177.646,199.416 173.5,219.5 Z"/></g>
<g><path style="opacity:1" fill="#9fbbd9" d="M 97.5,126.5 C 143.693,127.196 171.193,150.196 180,195.5C 181.154,240.654 159.987,268.821 116.5,280C 81.4938,283.911 54.6604,271.078 36,241.5C 23.3627,216.193 23.3627,190.86 36,165.5C 50.3614,142.74 70.8614,129.74 97.5,126.5 Z M 42.5,166.5 C 46.9948,181.831 54.3281,195.498 64.5,207.5C 67.2049,225.445 77.2049,236.945 94.5,242C 98.4862,242.499 102.486,242.666 106.5,242.5C 120.765,250.236 136.098,254.569 152.5,255.5C 135.825,271.668 115.825,278.168 92.5,275C 58.5445,268.045 38.3778,247.545 32,213.5C 30.4058,200.4 32.0724,187.733 37,175.5C 38.3571,172.102 40.1904,169.102 42.5,166.5 Z M 173.5,219.5 C 162.326,220.059 151.326,219.059 140.5,216.5C 145.98,194.417 138.647,178.25 118.5,168C 106.635,163.42 94.9688,163.92 83.5,169.5C 78.1912,159.948 75.1912,149.614 74.5,138.5C 110.02,125.091 139.52,133.424 163,163.5C 174.146,180.749 177.646,199.416 173.5,219.5 Z"/></g>
<g><path style="opacity:1" fill="#c7d8e9" d="M 168.5,258.5 C 173.736,251.04 178.236,243.04 182,234.5C 193.834,198.004 186.001,166.504 158.5,140C 132.361,119.927 103.361,114.594 71.5,124C 67.7308,125.207 64.7308,127.374 62.5,130.5C 40.3678,142.799 26.5345,161.132 21,185.5C 14.919,220.815 25.7524,249.648 53.5,272C 89.2632,294.27 124.263,293.104 158.5,268.5C 156.201,270.994 153.867,273.494 151.5,276C 116.39,294.815 82.0562,293.648 48.5,272.5C 47.4848,269.79 45.9848,267.457 44,265.5C 28.2202,251.604 19.5536,233.937 18,212.5C 17.4491,200.441 18.1158,188.441 20,176.5C 22.8292,166.152 28.1626,157.486 36,150.5C 38.694,144.801 42.5274,139.968 47.5,136C 77.8906,113.654 110.224,110.487 144.5,126.5C 147.699,130.267 151.699,132.767 156.5,134C 157.913,136.202 159.413,138.368 161,140.5C 168.362,145.701 174.862,151.701 180.5,158.5C 189.124,176.914 192.124,196.247 189.5,216.5C 188.914,216.709 188.414,217.043 188,217.5C 185.255,232.066 179.588,245.399 171,257.5C 170.329,258.252 169.496,258.586 168.5,258.5 Z M 173.5,219.5 C 162.326,220.059 151.326,219.059 140.5,216.5C 145.98,194.417 138.647,178.25 118.5,168C 106.635,163.42 94.9688,163.92 83.5,169.5C 78.1912,159.948 75.1912,149.614 74.5,138.5C 110.02,125.091 139.52,133.424 163,163.5C 174.146,180.749 177.646,199.416 173.5,219.5 Z"/></g>
<g><path style="opacity:0.767" fill="#fcf6f9" d="M 119.5,239.5 C 132.14,244.99 145.474,247.99 159.5,248.5C 158.167,251.833 155.833,254.167 152.5,255.5C 136.098,254.569 120.765,250.236 106.5,242.5C 110.876,241.778 115.209,240.778 119.5,239.5 Z"/></g>
<g><path style="opacity:1" fill="#f1c5d6" d="M 134.5,227.5 C 146.403,231.456 158.403,232.456 170.5,230.5C 168.863,233.817 167.196,237.15 165.5,240.5C 152.568,240.081 139.902,238.081 127.5,234.5C 129.5,231.833 131.833,229.5 134.5,227.5 Z"/></g>
<g><path style="opacity:1" fill="#f6dde7" d="M 127.5,234.5 C 139.902,238.081 152.568,240.081 165.5,240.5C 163.975,243.563 161.975,246.23 159.5,248.5C 145.474,247.99 132.14,244.99 119.5,239.5C 122.131,237.847 124.797,236.181 127.5,234.5 Z"/></g>
<g><path style="opacity:1" fill="#ebabc4" d="M 137.5,222.5 C 148.669,225.026 160.003,226.026 171.5,225.5C 171.371,227.216 171.038,228.883 170.5,230.5C 158.403,232.456 146.403,231.456 134.5,227.5C 135.263,225.632 136.263,223.965 137.5,222.5 Z"/></g>
<g><path style="opacity:1" fill="#e79ab8" d="M 140.5,216.5 C 151.326,219.059 162.326,220.059 173.5,219.5C 173.405,221.786 172.738,223.786 171.5,225.5C 160.003,226.026 148.669,225.026 137.5,222.5C 138.508,220.456 139.508,218.456 140.5,216.5 Z"/></g>
<g><path style="opacity:1" fill="#fdf6f9" d="M 45.5,160.5 C 46.5862,160.62 47.2528,161.287 47.5,162.5C 51.0518,175.33 56.7185,186.996 64.5,197.5C 64.5,200.833 64.5,204.167 64.5,207.5C 54.3281,195.498 46.9948,181.831 42.5,166.5C 42.615,164.053 43.615,162.053 45.5,160.5 Z"/></g>
<g><path style="opacity:1" fill="#f1c9d9" d="M 60.5,145.5 C 62.6765,157.575 66.6765,168.908 72.5,179.5C 71.0834,182.669 69.4168,185.669 67.5,188.5C 61.2966,176.86 56.2966,164.86 52.5,152.5C 55.1413,150.196 57.808,147.862 60.5,145.5 Z"/></g>
<g><path style="opacity:0.994" fill="#2566a9" d="M 140.5,216.5 C 139.508,218.456 138.508,220.456 137.5,222.5C 136.263,223.965 135.263,225.632 134.5,227.5C 131.833,229.5 129.5,231.833 127.5,234.5C 124.797,236.181 122.131,237.847 119.5,239.5C 115.209,240.778 110.876,241.778 106.5,242.5C 102.486,242.666 98.4862,242.499 94.5,242C 77.2049,236.945 67.2049,225.445 64.5,207.5C 64.5,204.167 64.5,200.833 64.5,197.5C 65.8749,194.627 66.8749,191.627 67.5,188.5C 69.4168,185.669 71.0834,182.669 72.5,179.5C 74.8333,177.833 76.8333,175.833 78.5,173.5C 80.7488,172.92 82.4154,171.587 83.5,169.5C 94.9688,163.92 106.635,163.42 118.5,168C 138.647,178.25 145.98,194.417 140.5,216.5 Z"/></g>
<g><path style="opacity:1" fill="#ecb0c7" d="M 68.5,140.5 C 69.5274,152.295 72.8607,163.295 78.5,173.5C 76.8333,175.833 74.8333,177.833 72.5,179.5C 66.6765,168.908 62.6765,157.575 60.5,145.5C 63.1667,143.833 65.8333,142.167 68.5,140.5 Z"/></g>
<g><path style="opacity:1" fill="#f8e3ec" d="M 52.5,152.5 C 56.2966,164.86 61.2966,176.86 67.5,188.5C 66.8749,191.627 65.8749,194.627 64.5,197.5C 56.7185,186.996 51.0518,175.33 47.5,162.5C 47.2528,161.287 46.5862,160.62 45.5,160.5C 47.8432,157.793 50.1765,155.126 52.5,152.5 Z"/></g>
<g><path style="opacity:1" fill="#e698b7" d="M 74.5,138.5 C 75.1912,149.614 78.1912,159.948 83.5,169.5C 82.4154,171.587 80.7488,172.92 78.5,173.5C 72.8607,163.295 69.5274,152.295 68.5,140.5C 70.2972,139.27 72.2972,138.604 74.5,138.5 Z"/></g>
<g><path style="opacity:0.948" fill="#2372be" d="M 293.5,288.5 C 294.833,288.5 296.167,288.5 297.5,288.5C 304.5,288.5 311.5,288.5 318.5,288.5C 318.334,298.839 318.5,309.172 319,319.5C 324.311,314.854 330.477,313.354 337.5,315C 342.235,316.068 345.402,318.901 347,323.5C 347.5,335.829 347.667,348.162 347.5,360.5C 349.604,360.201 351.604,360.534 353.5,361.5C 343.833,362.833 334.167,362.833 324.5,361.5C 325.689,360.571 327.022,360.238 328.5,360.5C 328.758,347.137 328.425,333.804 327.5,320.5C 323.077,320.744 320.244,323.078 319,327.5C 318.5,338.495 318.333,349.495 318.5,360.5C 319.978,360.238 321.311,360.571 322.5,361.5C 312.833,362.833 303.167,362.833 293.5,361.5C 295.045,360.548 296.712,360.215 298.5,360.5C 298.5,337.5 298.5,314.5 298.5,291.5C 296.833,291.5 295.167,291.5 293.5,291.5C 293.5,290.5 293.5,289.5 293.5,288.5 Z"/></g>
<g><path style="opacity:0.952" fill="#2a73be" d="M 285.5,300.5 C 285.5,301.833 285.5,303.167 285.5,304.5C 285.5,305.167 285.5,305.833 285.5,306.5C 285.5,309.5 285.5,312.5 285.5,315.5C 284.624,315.631 283.957,315.298 283.5,314.5C 281.977,310.771 279.977,307.438 277.5,304.5C 272.325,294.717 264.992,292.551 255.5,298C 254.242,299.741 253.242,301.574 252.5,303.5C 251.463,304.93 250.796,306.597 250.5,308.5C 250.007,310.806 249.674,313.139 249.5,315.5C 249.5,322.5 249.5,329.5 249.5,336.5C 249.325,338.621 249.659,340.621 250.5,342.5C 250.216,344.415 250.549,346.081 251.5,347.5C 251.595,349.786 252.262,351.786 253.5,353.5C 254.167,356.167 255.833,357.833 258.5,358.5C 262.55,362.459 266.55,362.459 270.5,358.5C 272.674,358.25 274.341,357.25 275.5,355.5C 278.568,352.378 280.902,348.711 282.5,344.5C 283.026,342.77 284.026,341.436 285.5,340.5C 285.833,340.5 286.167,340.5 286.5,340.5C 286.5,342.833 286.5,345.167 286.5,347.5C 286.5,348.5 286.5,349.5 286.5,350.5C 286.5,354.5 286.5,358.5 286.5,362.5C 284.61,362.703 283.11,362.037 282,360.5C 239.482,370.648 222.482,354.314 231,311.5C 239.53,295.822 252.697,289.655 270.5,293C 274.057,293.598 277.557,294.431 281,295.5C 282.3,294.293 283.8,293.626 285.5,293.5C 285.5,295.833 285.5,298.167 285.5,300.5 Z M 258.5,358.5 C 262.5,359.833 266.5,359.833 270.5,358.5C 266.55,362.459 262.55,362.459 258.5,358.5 Z"/></g>
<g><path style="opacity:0.937" fill="#2372bd" d="M 426.5,298.5 C 427.833,298.5 429.167,298.5 430.5,298.5C 430.5,304.167 430.5,309.833 430.5,315.5C 434.833,315.5 439.167,315.5 443.5,315.5C 443.5,316.5 443.5,317.5 443.5,318.5C 439.167,318.5 434.833,318.5 430.5,318.5C 430.057,331.574 430.557,344.574 432,357.5C 433.764,359.661 435.597,359.828 437.5,358C 440.076,355.349 441.409,352.182 441.5,348.5C 442.978,348.238 444.311,348.571 445.5,349.5C 443.917,359.591 438.083,364.258 428,363.5C 417.75,364.897 412.083,360.564 411,350.5C 410.5,339.839 410.333,329.172 410.5,318.5C 408.833,318.5 407.167,318.5 405.5,318.5C 405.5,317.5 405.5,316.5 405.5,315.5C 407.167,315.5 408.833,315.5 410.5,315.5C 410.5,311.167 410.5,306.833 410.5,302.5C 416.094,301.768 421.427,300.435 426.5,298.5 Z"/></g>
<g><path style="opacity:1" fill="#e9b2cf" d="M 277.5,304.5 C 269.367,300.902 261.034,300.569 252.5,303.5C 253.242,301.574 254.242,299.741 255.5,298C 264.992,292.551 272.325,294.717 277.5,304.5 Z"/></g>
<g><path style="opacity:1" fill="#c3176e" d="M 268.5,311.5 C 270.38,311.229 271.713,311.896 272.5,313.5C 281.254,322.976 280.254,331.476 269.5,339C 261.996,341.159 256.163,338.993 252,332.5C 249.34,324.477 251.174,317.643 257.5,312C 261.152,311.501 264.818,311.335 268.5,311.5 Z"/></g>
<g><path style="opacity:0.922" fill="#2471be" d="M 369.5,314.5 C 377.668,313.95 385.668,314.783 393.5,317C 396.467,319.1 398.3,321.934 399,325.5C 399.333,335.5 399.667,345.5 400,355.5C 400.605,357.481 401.605,357.815 403,356.5C 404.289,353.649 404.789,350.649 404.5,347.5C 405.5,347.5 406.5,347.5 407.5,347.5C 408.008,362.279 401.008,367.446 386.5,363C 383.943,362.315 382.109,360.815 381,358.5C 380.167,360.667 378.667,362.167 376.5,363C 370.747,363.851 365.08,363.517 359.5,362C 353.961,356.529 353.128,350.362 357,343.5C 359.543,341.646 362.376,340.479 365.5,340C 370.155,339.501 374.821,339.334 379.5,339.5C 379.666,333.158 379.5,326.825 379,320.5C 376.567,315.289 374.067,315.289 371.5,320.5C 372.32,322.111 373.654,322.778 375.5,322.5C 375.931,334.714 370.431,338.38 359,333.5C 356.33,327.637 357.163,322.47 361.5,318C 364.158,316.522 366.825,315.355 369.5,314.5 Z M 378.5,341.5 C 379.648,345.981 379.815,350.648 379,355.5C 378.019,358.689 376.686,359.022 375,356.5C 374.333,353.167 374.333,349.833 375,346.5C 375.257,344.093 376.424,342.427 378.5,341.5 Z"/></g>
<g><path style="opacity:1" fill="#f9e8f0" d="M 124.5,303.5 C 125.422,305.816 127.089,307.483 129.5,308.5C 137.254,319.893 137.42,331.56 130,343.5C 118.166,358.834 103.333,362.667 85.5,355C 70.127,344.55 65.2937,330.383 71,312.5C 71.6972,310.416 72.8639,308.749 74.5,307.5C 77.1667,305.5 79.5,303.167 81.5,300.5C 96.5286,291.788 110.862,292.788 124.5,303.5 Z"/></g>
<g><path style="opacity:1" fill="#eebfd7" d="M 123.5,309.5 C 121.483,308.471 119.483,307.471 117.5,306.5C 115.428,302.947 112.428,300.447 108.5,299C 103.511,298.501 98.5111,298.334 93.5,298.5C 93.5,299.5 93.5,300.5 93.5,301.5C 81.6533,305.203 75.6533,313.369 75.5,326C 75.7978,328.848 76.1312,331.681 76.5,334.5C 75.4415,333.4 74.6082,332.066 74,330.5C 73.5012,326.514 73.3345,322.514 73.5,318.5C 80.8807,297.985 94.8807,291.819 115.5,300C 118.747,302.741 121.414,305.908 123.5,309.5 Z"/></g>
<g><path style="opacity:1" fill="#e9b5d1" d="M 285.5,306.5 C 286.794,307.29 287.961,308.29 289,309.5C 292.019,316.945 292.853,324.611 291.5,332.5C 289.457,335.011 287.791,337.678 286.5,340.5C 286.167,340.5 285.833,340.5 285.5,340.5C 289.637,332.867 290.47,324.867 288,316.5C 287.329,315.748 286.496,315.414 285.5,315.5C 285.5,312.5 285.5,309.5 285.5,306.5 Z"/></g>
<g><path style="opacity:1" fill="#f4d9e7" d="M 285.5,304.5 C 291.868,309.402 295.202,315.902 295.5,324C 295.597,333.261 292.597,341.094 286.5,347.5C 286.5,345.167 286.5,342.833 286.5,340.5C 287.791,337.678 289.457,335.011 291.5,332.5C 292.853,324.611 292.019,316.945 289,309.5C 287.961,308.29 286.794,307.29 285.5,306.5C 285.5,305.833 285.5,305.167 285.5,304.5 Z"/></g>
<g><path style="opacity:1" fill="#d35695" d="M 250.5,342.5 C 249.659,340.621 249.325,338.621 249.5,336.5C 256.622,342.745 264.622,344.078 273.5,340.5C 280.998,333.514 282.331,325.514 277.5,316.5C 276.06,315.048 274.394,314.048 272.5,313.5C 271.713,311.896 270.38,311.229 268.5,311.5C 264.019,310.352 259.352,310.185 254.5,311C 252.963,312.707 251.296,314.207 249.5,315.5C 249.674,313.139 250.007,310.806 250.5,308.5C 268.479,300.658 280.145,306.158 285.5,325C 285.267,333.461 281.6,340.127 274.5,345C 265.987,347.644 257.987,346.811 250.5,342.5 Z"/></g>
<g><path style="opacity:1" fill="#fcf6f9" d="M 285.5,300.5 C 296.713,311.044 299.88,323.71 295,338.5C 292.882,343.094 290.048,347.094 286.5,350.5C 286.5,349.5 286.5,348.5 286.5,347.5C 292.597,341.094 295.597,333.261 295.5,324C 295.202,315.902 291.868,309.402 285.5,304.5C 285.5,303.167 285.5,301.833 285.5,300.5 Z"/></g>
<g><path style="opacity:1" fill="#f3d2e3" d="M 73.5,318.5 C 73.3345,322.514 73.5012,326.514 74,330.5C 74.6082,332.066 75.4415,333.4 76.5,334.5C 76.3433,335.873 76.51,337.207 77,338.5C 80.3635,343.029 84.1969,347.029 88.5,350.5C 90.2214,352.694 92.5547,353.861 95.5,354C 102.004,354.93 108.338,354.264 114.5,352C 117.729,349.259 121.062,346.759 124.5,344.5C 116.54,354.432 106.207,357.932 93.5,355C 78.6595,350.94 71.3262,341.273 71.5,326C 71.2999,323.134 71.9666,320.634 73.5,318.5 Z"/></g>
<g><path style="opacity:1" fill="#e8a8c8" d="M 117.5,306.5 C 119.483,307.471 121.483,308.471 123.5,309.5C 123.782,310.778 124.449,311.778 125.5,312.5C 131.127,331.413 124.794,344.579 106.5,352C 100.407,352.624 94.4066,352.124 88.5,350.5C 84.1969,347.029 80.3635,343.029 77,338.5C 76.51,337.207 76.3433,335.873 76.5,334.5C 76.1312,331.681 75.7978,328.848 75.5,326C 75.6533,313.369 81.6533,305.203 93.5,301.5C 93.5,300.5 93.5,299.5 93.5,298.5C 98.5111,298.334 103.511,298.501 108.5,299C 112.428,300.447 115.428,302.947 117.5,306.5 Z"/></g>
<g><path style="opacity:1" fill="#da72a7" d="M 123.5,317.5 C 126.216,324.069 125.882,330.402 122.5,336.5C 114.125,347.339 103.458,350.173 90.5,345C 75.8817,331.977 75.8817,318.977 90.5,306C 104.515,301.172 115.515,305.005 123.5,317.5 Z"/></g>
<g><path style="opacity:1" fill="#d35796" d="M 93.5,308.5 C 103.66,304.188 112.16,306.522 119,315.5C 124.437,328.61 120.937,338.443 108.5,345C 90.5241,346.691 82.0241,338.524 83,320.5C 84.8934,315.106 88.3934,311.106 93.5,308.5 Z"/></g>
<g><path style="opacity:1" fill="#e18cb7" d="M 277.5,304.5 C 279.977,307.438 281.977,310.771 283.5,314.5C 283.957,315.298 284.624,315.631 285.5,315.5C 286.496,315.414 287.329,315.748 288,316.5C 290.47,324.867 289.637,332.867 285.5,340.5C 284.026,341.436 283.026,342.77 282.5,344.5C 279.732,346.087 277.065,347.92 274.5,350C 268.833,350.667 263.167,350.667 257.5,350C 255.372,349.345 253.372,348.511 251.5,347.5C 250.549,346.081 250.216,344.415 250.5,342.5C 257.987,346.811 265.987,347.644 274.5,345C 281.6,340.127 285.267,333.461 285.5,325C 280.145,306.158 268.479,300.658 250.5,308.5C 250.796,306.597 251.463,304.93 252.5,303.5C 261.034,300.569 269.367,300.902 277.5,304.5 Z"/></g>
<g><path style="opacity:1" fill="#cc3b85" d="M 93.5,308.5 C 112.204,305.876 120.871,313.876 119.5,332.5C 118.5,332.5 117.5,332.5 116.5,332.5C 115.137,336.702 112.47,339.869 108.5,342C 91.1066,345.273 83.2733,338.106 85,320.5C 86.8576,315.809 89.691,311.809 93.5,308.5 Z"/></g>
<g><path style="opacity:1" fill="#c3196f" d="M 116.5,332.5 C 111.145,340.099 103.812,342.599 94.5,340C 83.9323,330.516 83.9323,321.183 94.5,312C 102.731,308.726 109.564,310.56 115,317.5C 116.325,322.401 116.825,327.401 116.5,332.5 Z"/></g>
<g><path style="opacity:1" fill="#ca337f" d="M 268.5,311.5 C 264.818,311.335 261.152,311.501 257.5,312C 251.174,317.643 249.34,324.477 252,332.5C 256.163,338.993 261.996,341.159 269.5,339C 280.254,331.476 281.254,322.976 272.5,313.5C 274.394,314.048 276.06,315.048 277.5,316.5C 282.331,325.514 280.998,333.514 273.5,340.5C 264.622,344.078 256.622,342.745 249.5,336.5C 249.5,329.5 249.5,322.5 249.5,315.5C 251.296,314.207 252.963,312.707 254.5,311C 259.352,310.185 264.019,310.352 268.5,311.5 Z"/></g>
<g><path style="opacity:1" fill="#efc2d9" d="M 125.5,312.5 C 127.708,313.023 129.208,314.356 130,316.5C 131.941,323.157 131.941,329.824 130,336.5C 128.694,339.621 126.86,342.287 124.5,344.5C 121.062,346.759 117.729,349.259 114.5,352C 108.338,354.264 102.004,354.93 95.5,354C 92.5547,353.861 90.2214,352.694 88.5,350.5C 94.4066,352.124 100.407,352.624 106.5,352C 124.794,344.579 131.127,331.413 125.5,312.5 Z"/></g>
<g><path style="opacity:1" fill="#e18cb7" d="M 117.5,306.5 C 118.899,309.132 120.732,311.465 123,313.5C 123.49,314.793 123.657,316.127 123.5,317.5C 115.515,305.005 104.515,301.172 90.5,306C 75.8817,318.977 75.8817,331.977 90.5,345C 103.458,350.173 114.125,347.339 122.5,336.5C 119.655,343.844 114.322,348.011 106.5,349C 91.871,351.176 82.371,345.342 78,331.5C 75.521,316.505 81.3543,306.672 95.5,302C 103.563,300.439 110.897,301.939 117.5,306.5 Z"/></g>
<g><path style="opacity:1" fill="#fbf2f7" d="M 153.5,340.5 C 145.585,321.805 150.252,306.972 167.5,296C 185.004,288.961 199.504,292.795 211,307.5C 221.019,327.748 216.519,343.915 197.5,356C 178.223,363.189 163.556,358.022 153.5,340.5 Z"/></g>
<g><path style="opacity:1" fill="#e9abca" d="M 189.5,299.5 C 191.861,299.674 194.194,300.007 196.5,300.5C 201.752,303.588 205.918,307.922 209,313.5C 212.955,328.042 209.121,339.876 197.5,349C 190.796,353.004 183.463,354.504 175.5,353.5C 168.065,349.055 162.732,342.722 159.5,334.5C 158.21,333.942 157.377,332.942 157,331.5C 155.105,317.372 160.438,307.039 173,300.5C 178.45,299.57 183.95,299.237 189.5,299.5 Z"/></g>
<g><path style="opacity:1" fill="#f2cee0" d="M 196.5,300.5 C 198.482,300.995 200.482,301.495 202.5,302C 204.452,304.737 206.952,306.904 210,308.5C 212.814,318.057 213.148,327.724 211,337.5C 206.901,345.542 200.735,351.376 192.5,355C 186.833,355.667 181.167,355.667 175.5,355C 174.584,354.722 173.918,354.222 173.5,353.5C 174.167,353.5 174.833,353.5 175.5,353.5C 183.463,354.504 190.796,353.004 197.5,349C 209.121,339.876 212.955,328.042 209,313.5C 205.918,307.922 201.752,303.588 196.5,300.5 Z"/></g>
<g><path style="opacity:1" fill="#eec0d8" d="M 189.5,299.5 C 183.95,299.237 178.45,299.57 173,300.5C 160.438,307.039 155.105,317.372 157,331.5C 157.377,332.942 158.21,333.942 159.5,334.5C 162.732,342.722 168.065,349.055 175.5,353.5C 174.833,353.5 174.167,353.5 173.5,353.5C 170.881,353.075 168.547,352.075 166.5,350.5C 155.267,340.35 151.934,328.017 156.5,313.5C 161.034,307.8 166.368,302.966 172.5,299C 175.977,298.337 179.477,297.837 183,297.5C 185.544,297.336 187.71,298.003 189.5,299.5 Z"/></g>
<g><path style="opacity:1" fill="#e088b5" d="M 159.5,334.5 C 159.334,328.824 159.501,323.157 160,317.5C 166.231,302.873 177.064,298.04 192.5,303C 196.916,305.412 200.749,308.578 204,312.5C 208.609,324.573 206.776,335.406 198.5,345C 195.339,346.413 192.339,348.08 189.5,350C 183.012,350.834 176.679,350.168 170.5,348C 166.591,343.601 162.924,339.101 159.5,334.5 Z"/></g>
<g><path style="opacity:1" fill="#d7649e" d="M 202.5,320.5 C 203.914,325.766 203.748,331.099 202,336.5C 199.791,338.373 197.958,340.54 196.5,343C 187.931,347.216 179.264,347.55 170.5,344C 167.122,340.187 164.288,336.02 162,331.5C 160.871,309.466 171.038,301.132 192.5,306.5C 195.169,308.34 197.669,310.34 200,312.5C 201.591,314.927 202.425,317.593 202.5,320.5 Z"/></g>
<g><path style="opacity:1" fill="#cb3781" d="M 202.5,320.5 C 202.511,328.341 199.844,335.174 194.5,341C 184.973,346.225 176.139,345.392 168,338.5C 167.867,335.475 166.867,332.808 165,330.5C 164.304,326.095 164.637,321.761 166,317.5C 173.58,308.481 183.08,305.981 194.5,310C 197.561,313.334 200.228,316.834 202.5,320.5 Z"/></g>
<g><path style="opacity:1" fill="#c3166e" d="M 178.5,312.5 C 182.514,312.334 186.514,312.501 190.5,313C 196.776,319.253 197.942,326.42 194,334.5C 189.158,339.299 183.325,340.799 176.5,339C 169.028,333.227 167.528,326.06 172,317.5C 173.805,315.174 175.972,313.508 178.5,312.5 Z"/></g>
<g><path style="opacity:1" fill="#f5d9e7" d="M 196.5,300.5 C 194.194,300.007 191.861,299.674 189.5,299.5C 187.71,298.003 185.544,297.336 183,297.5C 179.477,297.837 175.977,298.337 172.5,299C 166.368,302.966 161.034,307.8 156.5,313.5C 151.934,328.017 155.267,340.35 166.5,350.5C 161.454,348.028 157.121,344.695 153.5,340.5C 148.54,320.608 154.874,305.775 172.5,296C 179.176,294.059 185.843,294.059 192.5,296C 194.644,296.792 195.977,298.292 196.5,300.5 Z"/></g>
<g><path style="opacity:1" fill="#eec4da" d="M 282.5,344.5 C 280.902,348.711 278.568,352.378 275.5,355.5C 271.85,354.717 268.017,354.717 264,355.5C 260.335,355.519 256.835,354.852 253.5,353.5C 252.262,351.786 251.595,349.786 251.5,347.5C 253.372,348.511 255.372,349.345 257.5,350C 263.167,350.667 268.833,350.667 274.5,350C 277.065,347.92 279.732,346.087 282.5,344.5 Z"/></g>
<g><path style="opacity:1" fill="#f8eaf2" d="M 253.5,353.5 C 256.835,354.852 260.335,355.519 264,355.5C 268.017,354.717 271.85,354.717 275.5,355.5C 274.341,357.25 272.674,358.25 270.5,358.5C 266.5,359.833 262.5,359.833 258.5,358.5C 255.833,357.833 254.167,356.167 253.5,353.5 Z"/></g>
</svg>
